# xmcd
#
# Track frame offsets:
#	150
#	13825
#	27730
#	43515
#	57137
#	67455
#	82615
#	95767
#	114840
#	129352
#	140390
#	155022
#
# Disc length: 2276 seconds
#
# Revision: 1
# Processed by: cddbd v1.5.2PL0 Copyright (c) Steve Scherf et al.
# Submitted via: audiograbber 1.83.01
#
DISCID=a008e20c
DTITLE=TR Dallas - Sweetheart I Miss You Tonight
DYEAR=1900
DGENRE=
TTITLE0=Sweetheart I Miss You Tonight
TTITLE1=If You Want To Find Love
TTITLE2=Don't Make Me Laugh
TTITLE3=On My Own
TTITLE4=Thats What Love Will Do
TTITLE5=The Bar Room Blues
TTITLE6=Home To Sweet Tralee
TTITLE7=Peggy Gordon
TTITLE8=Ring Of Fire
TTITLE9=I'd Live My Life Over With You
TTITLE10=Smoke Along The Track
TTITLE11=Daddy's Girl
EXTD=
EXTT0=
EXTT1=
EXTT2=
EXTT3=
EXTT4=
EXTT5=
EXTT6=
EXTT7=
EXTT8=
EXTT9=
EXTT10=
EXTT11=
PLAYORDER=
